{"title":"Wild.Things.Foursome.2010.SWESUB.DVDRip.XviD.AC3.(5.1).-Zen_Bud","uid":5645635,"size":1469787428,"categoryP":"video","categoryS":"movies","magnet":"?xt=urn:btih:aab147f3a4c36c9d4612b7392f842c19e88a8afb&amp;dn=Wild.Things.Foursome.2010.SWESUB.DVDRip.XviD.AC3.%285.1%29.-Zen_Bud&amp;tr=udp%3A%2F%2Ftracker.openbittorrent.com%3A80&amp;tr=udp%3A%2F%2Fopen.demonii.com%3A1337&amp;tr=udp%3A%2F%2Ftracker.coppersurfer.tk%3A6969&amp;tr=udp%3A%2F%2Fexodus.desync.com%3A6969","seeders":0,"leechers":0,"uploader":"Zen_Bud","files":-1,"time":1277282588,"description":"General\nComplete name                    : Wild.Things.Foursome.avi\nFormat                           : AVI\nFile size                        : 1.37 GiB\nDuration                         : 1h 28mn\nOverall bit rate                 : 2 223 Kbps\n\nVideo\n\nFormat                           : MPEG-4 Visual\nCodec ID/Hint                    : XviD\nDuration                         : 1h 28mn\nBit rate                         : 1 828 Kbps\nWidth                            : 720 pixels\nHeight                           : 550 pixels\nDisplay aspect ratio             : 1.862\nStream size                      : 1.13 GiB (82%)\nWriting library                  : XviD 1.1.2 (UTC 2006-11-01)\n\nAudio\n\nFormat                           : AC-3\nDuration                         : 1h 28mn\nBit rate                         : 384 Kbps\nChannel(s)                       : 6 channels\nChannel positions                : Front: L C R, Side: L R, LFE\nSampling rate                    : 48.0 KHz\nStream size                      : 242 MiB (17%)\n\n\n","torrent":{"xt":"urn:btih:aab147f3a4c36c9d4612b7392f842c19e88a8afb","amp;dn":"Wild.Things.Foursome.2010.SWESUB.DVDRip.XviD.AC3.%285.1%29.-Zen_Bud","amp;tr":["udp%3A%2F%2Ftracker.openbittorrent.com%3A80","udp%3A%2F%2Fopen.demonii.com%3A1337","udp%3A%2F%2Ftracker.coppersurfer.tk%3A6969","udp%3A%2F%2Fexodus.desync.com%3A6969"],"infoHash":"aab147f3a4c36c9d4612b7392f842c19e88a8afb","infoHashBuffer":{"type":"Buffer","data":[170,177,71,243,164,195,108,157,70,18,183,57,47,132,44,25,232,138,138,251]},"announce":[],"urlList":[]}}